# xmcd
#
# Track frame offsets:
#	183
#	10710
#	21973
#	36595
#	47540
#	59070
#	75943
#	84180
#	96093
#	105308
#	113733
#	125310
#	139498
#	144955
#	156580
#	167105
#	181158
#	194045
#	204173
#	213418
#	227968
#	239940
#	253433
#
# Disc length: 3608 seconds
# Revision: 0
# Processed by: cddbd v1.5.2PL0 Copyright (c) Steve Scherf et al.
# Submitted via: dBpowerAMP V12.0
#
DISCID=480e1617
DTITLE=The Fireside Singers - 150 All Time Singalong Favorite Disc 4
DYEAR=1900
DGENRE=Sing A Long
TTITLE0=The Erie Canal
TTITLE1=My Bonnie Lies Over The Ocean
TTITLE2=The Rio Grande and Blow The Man Down
TTITLE3=Shenandoah
TTITLE4=Haul Away Joe and What Shall We Do With A Drunken Sailor
TTITLE5=Blow The Wind Southerly
TTITLE6=A Rovrig
TTITLE7=Jamaica Farewell
TTITLE8=The Banana Boat Song
TTITLE9=Zombie Jamboree
TTITLE10=Matilda  Matilda and Man Smart Woman Smarter
TTITLE11=Yellow Bird
TTITLE12=Jump Down Spin Around
TTITLE13=Comback Liza and Marianne
TTITLE14=I've Been Working On The Railroad
TTITLE15=Casey Jones
TTITLE16=She'll Be Coming Down The Mountain
TTITLE17=Wabash Cannonball
TTITLE18=Rock Island Line
TTITLE19=Sixteen Tons
TTITLE20=Nine Pound Hammer
TTITLE21=500 Miles
TTITLE22=The Midnight Special
EXTD=
EXTT0=
EXTT1=
EXTT2=
EXTT3=
EXTT4=
EXTT5=
EXTT6=
EXTT7=
EXTT8=
EXTT9=
EXTT10=
EXTT11=
EXTT12=
EXTT13=
EXTT14=
EXTT15=
EXTT16=
EXTT17=
EXTT18=
EXTT19=
EXTT20=
EXTT21=
EXTT22=
PLAYORDER=
